<svg id="svg4814" xmlns:rdf="http://www.w3.org/1999/02/22-rdf-syntax-ns#" xmlns="http://www.w3.org/2000/svg" height="50.065mm" width="76.612mm" version="1.1" xmlns:cc="http://creativecommons.org/ns#" xmlns:dc="http://purl.org/dc/elements/1.1/" viewBox="0 0 271.46092 177.39684">
	<g id="layer1" transform="translate(-407.13 -549.38)">
		<g id="g4712" transform="translate(176.87 8.4152)">
			<path id="path4658" opacity="0.98" d="m371.84 540.96c-38.409 0.033-69.766 30.725-70.621 69.125-5.128-1.5432-10.453-2.3314-15.809-2.3398-30.463 0.00014-55.158 24.695-55.158 55.158 0.00014 30.463 24.695 55.158 55.158 55.158 60.087-0.022 121.65-0.0284 173.24-0.0312 23.961-0.66419 43.044-20.272 43.059-44.242-0.00031-24.459-19.828-44.286-44.287-44.285-6.3589 0.0184-12.639 1.4059-18.414 4.0684 2.322-7.0728 3.5125-14.468 3.5274-21.912-0.00011-39.046-31.653-70.699-70.699-70.699z" fill="#5fc4ff"/>
			<path id="path4658-5" opacity="0.98" d="m231.74 675.67c5.7605 24.307 27.605 42.39 53.673 42.39 60.087-0.022 121.65-0.0284 173.24-0.0312 23.096-0.6402 41.66-18.881 42.983-41.663-86.523 0-187.9-0.73291-269.9-0.69627z" fill="#bee7ff"/>
			<path id="path4658-2" opacity="0.98" d="m371.84 540.96c-38.409 0.033-69.766 30.725-70.621 69.125-5.128-1.5432-10.453-2.3314-15.809-2.3398-30.463 0.00014-55.158 24.695-55.158 55.158 0.00014 30.463 24.695 55.158 55.158 55.158 11.318-0.72494 63.981 0.29528 85.985 0.29528 0.43393-61.866 0.44432-129.74 0.44432-177.4z" fill="#33b0f9"/>
			<path id="path4658-2-6" opacity="0.98" d="m231.9 676.72c6.3129 23.85 28.392 41.345 53.509 41.345 11.318-0.72494 63.981 0.29528 85.985 0.29528 0.0964-13.741 0.17187-27.779 0.23099-41.826-53.306 0-86.306 0.18608-139.73 0.18608z" fill="#8bd4ff"/>
		</g>
		<path id="path4682" d="m568.65 617.72c-3.3324-0.14925-6.399 1.4289-10.516 3.7949-8.5597 4.9196-10.445 4.765-17.674 0-5.372-3.541-12.265-6.3168-22.625 2.7793-9.1872 8.0664-9.6607 12.369-1.3594 12.369 6.2874 0.0955 10.744 5.1794-0.81445 3.3711-12.037-1.9534-22.295 4.2188-31.908 19.199-14.522 22.631-11.54 44.141 7.4766 53.934 16.747 8.6242 39.716 0.17963 45.268-16.643 2.4596-7.4526 3.6547-8.2188 12.799-8.2188 9.1441 0 10.339 0.76615 12.799 8.2188 8.1987 24.842 45.654 26.928 58.459 3.2559 6.3781-11.791 4.5872-24.496-5.7129-40.547-9.6129-14.98-19.871-21.153-31.908-19.199-5.0118 0.8133-7.8985 0.40397-7.0332-0.9961 0.80736-1.3063 3.6055-2.375 6.2188-2.375 8.3013 0 7.8278-4.3027-1.3594-12.369-5.1799-4.548-8.777-6.425-12.109-6.5742zm-61.9 43.553a23.375 23.375 0 0 1 23.375 23.375 23.375 23.375 0 0 1 -23.375 23.375 23.375 23.375 0 0 1 -21.883 -15.189c-0.1703-0.42859-0.31132-0.87252-0.43946-1.3262a23.375 23.375 0 0 1 -1.0527 -6.8594 23.375 23.375 0 0 1 23.375 -23.375zm86 0a23.375 23.375 0 0 1 23.375 23.375 23.375 23.375 0 0 1 -23.375 23.375 23.375 23.375 0 0 1 -20.98 -13.104c-1.1476-1.8559-1.7714-3.8047-2.0352-6.2109a23.375 23.375 0 0 1 -0.35938 -4.0606 23.375 23.375 0 0 1 23.375 -23.375z" fill="#003232"/>
		<path id="path4682-4" d="m568.56 617.75c-3.362-0.141-6.4273 1.4385-10.426 3.7715-3.9443 2.3014-6.1978 3.3303-9.3262 3.6445 0 19.889 0.48829 46.93 0.48829 63.146 9.1441 0 10.339 0.76615 12.799 8.2188 8.1987 24.842 45.654 26.928 58.459 3.2559 6.3781-11.791 4.5872-24.496-5.7129-40.547-9.6129-14.98-19.871-21.153-31.908-19.199-6.4081 0.99717-10.456-1.7886-0.81445-3.3711 8.3013 0 7.8278-4.3027-1.3594-12.369-5.1799-4.548-8.8373-6.4098-12.199-6.5508zm24.189 43.529a23.375 23.375 0 0 1 23.375 23.375 23.375 23.375 0 0 1 -23.375 23.375 23.375 23.375 0 0 1 -20.98 -13.104c-1.1476-1.8559-1.7714-3.8047-2.0352-6.2109a23.375 23.375 0 0 1 -0.35938 -4.0606 23.375 23.375 0 0 1 23.375 -23.375z" fill="#326464"/>
	</g>
</svg>
