<svg id="svg4550" xmlns:rdf="http://www.w3.org/1999/02/22-rdf-syntax-ns#" xmlns="http://www.w3.org/2000/svg" height="55.156mm" viewBox="0 0 289.84072 195.43326" width="81.799mm" version="1.1" xmlns:cc="http://creativecommons.org/ns#" xmlns:xlink="http://www.w3.org/1999/xlink" xmlns:dc="http://purl.org/dc/elements/1.1/">
	<defs id="defs14">
		<linearGradient id="linearGradient4263" y2="113.1" gradientUnits="userSpaceOnUse" y1="76.066" gradientTransform="translate(0 -.0012816)" x2="199.26" x1="160.9">
			<stop id="stop4259" stop-color="#fff" stop-opacity=".33333" offset="0"/>
			<stop id="stop4261" stop-color="#fff" stop-opacity="0" offset="1"/>
		</linearGradient>
		<linearGradient id="linearGradient4240" y2="79.833" gradientUnits="userSpaceOnUse" x2="120.82" y1="120.77" x1="128.56">
			<stop id="stop4236" stop-color="#fff" stop-opacity="0" offset="0"/>
			<stop id="stop4238" stop-color="#fff" stop-opacity=".33333" offset="1"/>
		</linearGradient>
	</defs>
	<g id="layer1" transform="translate(353.49 -626.07)">
		<g id="g4">
			<path id="path4220" d="m-207 679.86c-7.6546-3.9726-16.149-6.0541-24.773-6.0703-24.585 0.0315-46.045 16.665-52.207 40.465-2.23-0.35755-4.4838-0.54689-6.7422-0.56642-24.881-0.00043-45.051 20.17-45.051 45.051-0.00043 24.881 20.17 45.051 45.051 45.051 36.152-0.20272 72.845-0.0898 109.18-0.0898 8.9834 0 22.962 0.009 36.879 0.0165 9.7409 0.38215 35.645-0.43398 53.537-23.548 17.892-23.115 7.1203-72.79-0.31513-94.017s-30.566-42.361-53.247-42.361c-26.664 0-50.367 14.562-62.311 36.07z" style="color-rendering:auto;color:#000000;isolation:auto;mix-blend-mode:normal;shape-rendering:auto;solid-color:#000000;image-rendering:auto" fill="#0b9ee5"/>
			<path id="path4220-7" opacity=".98" d="m-335.78 758.74c-0.00043 24.881 20.17 45.051 45.051 45.051 36.152-0.20272 72.845-0.0898 109.18-0.0898 10.101 0 27.126 0.009 42.523 0.0156 11.975-0.4199 32.775-4.017 47.893-23.547 4.439-5.7347 7.1108-13.107 8.5098-21.271-35.448-0.0105-239.67-0.15823-253.16-0.15823z" fill="#60bce9"/>
		</g>
		<path id="path4220-2" d="m-144.69 643.79c-19.529 0-37.464 7.8167-50.359 20.447-4.6476 4.6419-8.6513 9.9041-11.953 15.623 0 40.944 0.0195 77.914 0.0195 123.83 8.4824 0.007 16.983 0.0137 25.438 0.0137 10.101 0 27.126 0.009 42.523 0.0156 11.975-0.4199 32.775-4.017 47.893-23.547 17.892-23.115 7.1209-72.791-0.31446-94.018s-30.565-42.361-53.246-42.361z" style="color-rendering:auto;color:#000000;isolation:auto;mix-blend-mode:normal;shape-rendering:auto;solid-color:#000000;image-rendering:auto" fill="#fff" fill-opacity=".31373"/>
	</g>
	<g id="g4244" transform="translate(2.926 -1.3827)">
		<path id="path4329" style="color-rendering:auto;color:#000000;isolation:auto;mix-blend-mode:normal;shape-rendering:auto;solid-color:#000000;image-rendering:auto" fill="#003232" d="m211.54 98.88c11.484 8.7901 14.857 8.43 22.486 19.238 3.6519 5.1733 5.5602 11.69 5.5645 18.164-0.00018 17.949-14.551 32.499-32.5 32.498-17.948-0.00018-32.498-14.55-32.498-32.498 0.006-0.50098 0.0236-1.0018 0.0527-1.502-3.4629-1.1175-6.9173-1.9297-9.6543-1.9297-2.7565 0-6.2409 0.82134-9.7285 1.9512 0.036 0.49286 0.0607 0.98649 0.0742 1.4805-0.00018 17.948-14.55 32.498-32.498 32.498-17.948-0.00019-32.498-14.55-32.498-32.498 0.006-3.5239 0.71774-6.9687 1.8781-10.26 5.474-20.521 8.7944-44.229 27.665-46.855 8.2552-1.1488 15.952 8.848 25.107 8.848 9.1558-0.00028 9.318-14.58 23.088-14.836 16.828-0.3123 31.185 16.304 43.462 25.701zm-4.7539 13.92c-13.255 0-24 10.745-24 24s10.745 24 24 24 24-10.745 24-24-10.745-24-24-24zm-84.125 0c-13.255 0-24 10.745-24 24s10.745 24 24 24 24-10.745 24-24-10.745-24-24-24z"/>
		<path id="path4329-2" style="color-rendering:auto;color:#000000;isolation:auto;mix-blend-mode:normal;shape-rendering:auto;solid-color:#000000;image-rendering:auto" fill="url(#linearGradient4263)" d="m157.24 77.869c-2.1199 2.1753-3.6401 4.4832-5.4018 6.5241-0.53185 0.61614-1.2448 1.3191-1.8477 1.7949-1.2058 0.9517-2.5477 1.6107-4.168 1.7793-0.27005 0.0281-0.54787 0.04296-0.83398 0.04297 5.0928 13.298 11.821 26.014 20 44.834 2.737 0 6.1914 0.8122 9.6543 1.9297-0.0291 0.5002-0.0467 1.001-0.0527 1.502 0 8.4131 3.196 16.08 8.4414 21.852 0.34969 0.38474 0.70861 0.75939 1.0762 1.127 5.881 5.8809 14.007 9.5194 22.98 9.5195 0.5609 0.00004 1.118-0.0149 1.6719-0.043 3.3236-0.16829 6.5154-0.83435 9.502-1.9277 0.99554-0.36446 1.9688-0.77802 2.916-1.2344 1.4208-0.68453 2.7833-1.4677 4.0801-2.3438 8.645-5.84 14.33-15.731 14.33-26.949-0.004-6.474-2.0849-12.873-5.5645-18.164-7.0668-10.745-14.684-12.763-22.486-19.238-11.815-9.8048-26.968-25.716-42.627-25.716-6.2104 0-9.3385 2.3185-11.67 4.7112zm49.543 34.924c4.9706 0 9.5876 1.5119 13.418 4.0996 0.6384 0.43129 1.255 0.89176 1.8476 1.3809 0.59266 0.4891 1.1622 1.0059 1.7051 1.5488 4.3431 4.3431 7.0293 10.343 7.0293 16.971 0 12.841-10.085 23.326-22.766 23.969-0.40906 0.0207-0.82015 0.0312-1.2344 0.0312-4.97 0-9.5878-1.5105-13.418-4.0976-0.00044-0.0003-0.002 0.00029-0.002 0-6.384-4.3129-10.58-11.618-10.58-19.902 0-6.6275 2.6862-12.628 7.0293-16.971 0.54288-0.54289 1.1124-1.0597 1.7051-1.5488 0.59266-0.4891 1.2073-0.94957 1.8457-1.3809 3.8304-2.5878 8.4493-4.0996 13.42-4.0996z"/>
		<path id="path4329-7" style="color-rendering:auto;color:#000000;isolation:auto;mix-blend-mode:normal;shape-rendering:auto;solid-color:#000000;image-rendering:auto" d="m121.43 79.077c-0.51208-0.01011-1.027 0.01805-1.543 0.08985-18.871 2.626-22.19 26.335-27.664 46.856-1.1604 3.2913-1.8729 6.7359-1.8789 10.26 0 17.948 14.55 32.498 32.498 32.498s32.498-14.55 32.498-32.498c-0.0135-0.49402-0.0382-0.98762-0.0742-1.4805 3.5012-1.0071 5.7853-1.8693 9.6893-1.9248-4.8944-11.377-14.29-31.914-19.961-44.863-8.5828 0.000001-15.883-8.7859-23.565-8.9376zm1.2344 33.723c13.255 0 24 10.745 24 24s-10.745 24-24 24-24-10.745-24-24 10.745-24 24-24z" fill="url(#linearGradient4240)"/>
	</g>
</svg>
